<?xml version="1.0" encoding="utf-8"?>
<!-- Generator: Adobe Illustrator 27.7.0, SVG Export Plug-In . SVG Version: 6.00 Build 0)  -->
<svg version="1.1" id="Layer_1" xmlns="http://www.w3.org/2000/svg" xmlns:xlink="http://www.w3.org/1999/xlink" x="0px" y="0px"
	 viewBox="0 0 1101.3 1116" style="enable-background:new 0 0 1101.3 1116;" xml:space="preserve">
<path d="M551.9,26.6c-295.3,0-534.7,241.6-534.7,536.9s239.4,534.7,534.7,534.7s534.7-239.4,534.7-534.7S847.2,26.6,551.9,26.6z
	 M484.8,301.8H619v387H484.8V301.8z M305.9,301.8h134.2v94H305.9C305.9,395.7,305.9,301.8,305.9,301.8z M440.1,700
	c0,40.3-8.9,69.4-24.6,89.5c-17.9,22.4-49.2,33.6-89.5,33.6h-20.1v-387h134.2L440.1,700L440.1,700z M798,825.3H484.8v-91.7H798
	V825.3z M798,691H661.5V436h22.4c60.4,0,96.2,20.1,109.6,62.6c4.5,13.4,6.7,29.1,6.7,47V691H798z"/>
</svg>
